<svg width="160" height="36" viewBox="0 0 160 36" fill="none" xmlns="http://www.w3.org/2000/svg">
<path d="M97.8378 20.1178V18.1293C97.848 17.8585 97.8272 17.5875 97.7757 17.3215C97.6721 16.7957 97.4071 16.3155 97.0177 15.9479C96.6284 15.5802 96.1341 15.3436 95.6039 15.2709C94.7359 15.0462 93.8311 15.002 92.9453 15.1409C92.0596 15.2798 91.2116 15.599 90.4537 16.0787C90.2445 16.2386 89.9995 16.3448 89.7399 16.3882C89.4804 16.4315 89.2141 16.4106 88.9645 16.3272C88.6841 16.235 88.4325 16.0711 88.2349 15.8516C88.0372 15.6321 87.9002 15.3646 87.8375 15.0758C87.7748 14.787 87.7886 14.4868 87.8774 14.2049C87.9662 13.923 88.1271 13.6693 88.344 13.4688C88.9075 12.8839 89.6131 12.4556 90.3917 12.226C92.674 11.3812 95.1503 11.2087 97.5275 11.7289C98.9807 11.9991 100.284 12.7954 101.189 13.9659C101.955 15.0543 102.347 16.363 102.305 17.6943V26.891C102.313 27.1888 102.26 27.485 102.15 27.7615C102.039 28.038 101.873 28.2889 101.662 28.499C101.451 28.709 101.2 28.8737 100.923 28.9829C100.646 29.0922 100.35 29.1437 100.053 29.1343C99.7826 29.1445 99.5119 29.1237 99.2463 29.0721C98.8371 28.9831 98.4714 28.755 98.2112 28.4265C97.951 28.0979 97.8125 27.6893 97.8191 27.2701C97.7571 27.2701 97.7571 27.2701 97.695 27.3322C96.5783 28.4888 95.0774 29.1962 93.4756 29.3207C92.1662 29.5077 90.8307 29.3136 89.6284 28.7614C88.6004 28.2955 87.7463 27.5152 87.1888 26.5327C86.6314 25.5502 86.3993 24.416 86.5259 23.2931C86.5664 22.0766 87.0383 20.9143 87.8571 20.0147C88.6758 19.1151 89.7877 18.537 90.9935 18.3841C92.9257 17.9677 94.9437 18.3008 96.6402 19.3162C96.8409 19.4414 97.028 19.5872 97.1986 19.7511C97.4298 19.8385 97.6456 19.9623 97.8378 20.1178ZM97.8378 23.7219V23.1005C97.8655 22.9195 97.839 22.7344 97.7617 22.5685C97.6844 22.4026 97.5597 22.2633 97.4034 22.1684C96.7335 21.6514 95.9415 21.3167 95.1043 21.1969C94.267 21.0772 93.4131 21.1763 92.6255 21.4848C92.1582 21.6366 91.7535 21.9375 91.4734 22.3415C91.1932 22.7456 91.053 23.2304 91.0742 23.7219C91.0885 24.2224 91.2572 24.7062 91.5572 25.1068C91.8572 25.5074 92.2738 25.805 92.7496 25.9589C93.5466 26.2364 94.4022 26.3006 95.2316 26.1453C96.0885 26.0427 96.8916 25.6732 97.5275 25.089C97.6425 25.0051 97.7323 24.8912 97.787 24.7597C97.8418 24.6282 97.8593 24.4841 97.8378 24.3433C97.8065 24.1373 97.8065 23.9278 97.8378 23.7219Z" fill="#536E96"/>
<path d="M112.544 11.4183C114.251 11.3808 115.946 11.7203 117.508 12.4126C117.972 12.6229 118.393 12.9179 118.749 13.2825C118.984 13.4842 119.151 13.7532 119.229 14.0531C119.307 14.3531 119.291 14.6697 119.183 14.9603C119.081 15.261 118.901 15.5289 118.661 15.7365C118.421 15.9441 118.13 16.0837 117.818 16.141C117.595 16.1909 117.365 16.1946 117.141 16.1519C116.917 16.1091 116.704 16.0208 116.515 15.8924C115.324 15.2162 113.974 14.8728 112.606 14.8982C112.222 14.8738 111.837 14.9272 111.475 15.0554C111.112 15.1835 110.779 15.3837 110.496 15.6438C110.348 15.7594 110.235 15.9128 110.167 16.0878C110.1 16.2628 110.081 16.4529 110.113 16.6378C110.145 16.8227 110.226 16.9954 110.348 17.1377C110.47 17.28 110.628 17.3865 110.806 17.4459C111.482 17.738 112.19 17.9467 112.916 18.0673C114.199 18.3111 115.464 18.6433 116.701 19.0615C117.617 19.3838 118.446 19.9157 119.121 20.615C119.534 21.0992 119.841 21.6644 120.022 22.2744C120.204 22.8843 120.256 23.5256 120.176 24.157C120.108 25.1396 119.755 26.081 119.16 26.865C118.564 27.649 117.753 28.2413 116.825 28.5689C115.428 29.1321 113.921 29.366 112.419 29.2525C110.754 29.2135 109.111 28.8549 107.58 28.1961C107.044 27.9597 106.56 27.6221 106.152 27.2019C105.16 26.0833 105.966 24.5298 107.269 24.2191C107.719 24.1494 108.179 24.2372 108.572 24.4677C109.771 25.1683 111.102 25.6127 112.482 25.7726C113.256 25.8785 114.044 25.7932 114.777 25.5241C115.092 25.4366 115.37 25.2506 115.571 24.9934C115.772 24.7362 115.885 24.4213 115.894 24.0949C115.922 23.9139 115.896 23.7288 115.818 23.5629C115.741 23.3969 115.616 23.2577 115.46 23.1628C115.014 22.8929 114.534 22.6839 114.033 22.5414C112.854 22.2307 111.613 21.9821 110.434 21.7335C109.583 21.5539 108.766 21.2392 108.014 20.8014C105.222 19.2479 105.222 15.4574 107.083 13.5311C108.166 12.4437 109.591 11.7634 111.116 11.6047C111.585 11.4966 112.063 11.4342 112.544 11.4183Z" fill="#536E96"/>
<path d="M84.3729 20.1179C84.3109 22.7899 83.6283 24.9648 81.8909 26.7047C80.6762 27.9623 79.0866 28.7909 77.3612 29.066C75.3135 29.4986 73.1812 29.2589 71.2802 28.3825C70.0522 27.8207 68.9804 26.9663 68.1583 25.8939C67.3362 24.8215 66.7889 23.5638 66.5644 22.2306C66.2937 21.033 66.2696 19.7926 66.4937 18.5853C66.7177 17.378 67.1852 16.2291 67.8674 15.2088C68.5092 14.2045 69.3651 13.3549 70.3735 12.721C71.382 12.0872 72.518 11.6847 73.7002 11.5426C75.5626 11.219 77.4785 11.4346 79.2227 12.164C80.5526 12.7056 81.7169 13.5877 82.599 14.7219C83.4811 15.8562 84.0501 17.2027 84.2488 18.6265C84.3109 19.192 84.3109 19.745 84.3729 20.1179ZM71.032 20.3043C71.0053 21.1599 71.1752 22.0103 71.5284 22.7899C71.8481 23.4817 72.3506 24.0729 72.9815 24.4994C73.6124 24.926 74.3477 25.1718 75.108 25.2102C75.8682 25.2485 76.6245 25.0781 77.2951 24.7172C77.9656 24.3564 78.5249 23.8188 78.9125 23.1627C79.4654 22.2639 79.753 21.2267 79.7421 20.171C79.7311 19.1154 79.422 18.0844 78.8504 17.1973C78.5144 16.6606 78.0596 16.2084 77.5213 15.8758C76.9829 15.5431 76.3754 15.3389 75.7457 15.2788C75.1159 15.2187 74.4808 15.3045 73.8895 15.5294C73.2981 15.7543 72.7663 16.1124 72.3351 16.5759C71.4361 17.6035 70.9692 18.9396 71.032 20.3043Z" fill="#536E96"/>
<path d="M124.334 15.7679H123.341C122.823 15.7679 122.326 15.5617 121.959 15.1946C121.593 14.8275 121.387 14.3296 121.387 13.8105C121.387 13.2914 121.593 12.7935 121.959 12.4264C122.326 12.0593 122.823 11.8531 123.341 11.8531H124.396V8.99466C124.474 8.43301 124.757 7.92038 125.191 7.55674C125.626 7.19309 126.18 7.00452 126.746 7.0278C127.311 7.05108 127.848 7.28455 128.251 7.68265C128.654 8.08076 128.895 8.61497 128.926 9.18108V11.8531H130.849C131.357 11.9081 131.823 12.1599 132.148 12.5548C132.473 12.9497 132.63 13.4562 132.587 13.9658C132.538 14.4482 132.316 14.8965 131.962 15.2278C131.609 15.559 131.147 15.7509 130.663 15.7679H128.926V23.5416C128.904 23.9136 129.008 24.2821 129.223 24.5868C129.437 24.8916 129.748 25.1146 130.105 25.2194C130.35 25.2708 130.6 25.2917 130.849 25.2815C131.161 25.2527 131.475 25.303 131.762 25.4278C132.049 25.5527 132.3 25.7481 132.492 25.9958C132.684 26.2436 132.81 26.5358 132.859 26.8454C132.908 27.155 132.879 27.472 132.773 27.7671C132.713 27.9788 132.61 28.1761 132.471 28.347C132.333 28.5179 132.161 28.6589 131.966 28.7613C131.264 29.0797 130.503 29.2489 129.733 29.2585C128.785 29.3578 127.828 29.23 126.94 28.8856C126.284 28.6407 125.713 28.2114 125.295 27.6493C124.876 27.0871 124.629 26.416 124.582 25.7165C124.531 25.3252 124.51 24.9304 124.52 24.5358V16.2029C124.457 16.1505 124.407 16.0837 124.374 16.008C124.342 15.9324 124.328 15.85 124.334 15.7679Z" fill="#536E96"/>
<path d="M56.4497 11.853V9.36742C56.4396 9.15835 56.4605 8.94893 56.5118 8.74602C56.6379 8.20024 56.9612 7.72052 57.4195 7.39926C57.8778 7.07801 58.4386 6.93796 58.9938 7.0061C59.5338 7.06103 60.0346 7.31311 60.4009 7.71425C60.7671 8.11539 60.973 8.63751 60.9794 9.181V11.7909H62.8409C63.0946 11.8126 63.3414 11.8848 63.5668 12.0034C63.7922 12.1219 63.9917 12.2843 64.1536 12.4812C64.3154 12.678 64.4364 12.9052 64.5093 13.1495C64.5823 13.3937 64.6057 13.6501 64.5784 13.9036C64.5397 14.3901 64.321 14.8445 63.9652 15.1779C63.6094 15.5112 63.142 15.6995 62.6548 15.7057H60.9174V23.2246C60.9072 23.4337 60.9281 23.6431 60.9794 23.846C61.0288 24.2347 61.2219 24.5907 61.5205 24.8438C61.8192 25.0969 62.2018 25.2287 62.5927 25.2131C62.9475 25.2201 63.3008 25.2617 63.6476 25.3374C63.9848 25.4547 64.2783 25.6722 64.4889 25.9609C64.6996 26.2495 64.8173 26.5956 64.8266 26.953C64.8913 27.3141 64.8351 27.6865 64.6668 28.0124C64.4985 28.3382 64.2275 28.5993 63.8958 28.7551C63.3443 28.9941 62.7573 29.141 62.1584 29.19C61.2855 29.283 60.4031 29.2199 59.5523 29.0036C58.7413 28.8238 58.0089 28.3892 57.4619 27.7632C56.915 27.1372 56.5821 26.3526 56.5118 25.5238C56.462 25.174 56.4412 24.8206 56.4497 24.4674V15.6435H55.3762C55.1193 15.6485 54.864 15.6025 54.6249 15.5082C54.3858 15.4139 54.1677 15.2732 53.9832 15.0941C53.7986 14.9151 53.6513 14.7013 53.5496 14.4649C53.4479 14.2286 53.3939 13.9745 53.3906 13.7172C53.3904 13.2004 53.591 12.7038 53.9501 12.3327C54.3092 11.9615 54.7984 11.7449 55.3142 11.7287C55.6831 11.8333 56.0669 11.8753 56.4497 11.853Z" fill="#536E96"/>
<path d="M48.6929 13.4687C49.8098 14.0901 50.12 15.1465 50.2441 16.265C50.5126 18.5537 50.5956 20.8604 50.4923 23.1625C50.4923 24.4675 50.4303 25.7724 50.3062 27.0773C50.2382 27.6836 50.1346 28.2853 49.9959 28.8794C49.7477 29.9358 49.0031 30.3707 48.0103 30.6193C46.988 30.8144 45.9424 30.8563 44.9077 30.7436C43.0462 30.5572 41.1847 30.3707 39.3232 30.1222C37.3868 29.8738 35.4267 29.8738 33.4904 30.1222L27.2233 31.0543C26.4608 31.1475 25.6898 31.1475 24.9274 31.0543C24.5053 30.9958 24.1038 30.8351 23.7577 30.586C23.4117 30.337 23.1316 30.0071 22.9418 29.6251C22.4 28.6916 22.0616 27.6539 21.9489 26.5802C21.6602 24.731 21.5563 22.8575 21.6387 20.9876C21.6941 18.8343 22.1354 16.7085 22.9418 14.7115C23.3076 13.9402 23.7221 13.193 24.1828 12.4745C23.9608 12.2609 23.7535 12.0325 23.5623 11.7909C22.9458 11.2122 22.576 10.4176 22.5297 9.57267C22.4835 8.72773 22.7644 7.89747 23.3141 7.25472C24.047 6.31529 24.9797 5.55111 26.0443 5.01769C28.5125 3.65488 31.2401 2.82907 34.0488 2.59423C37.6719 2.21712 41.3304 2.79775 44.6595 4.27822C46.0168 4.85655 47.2574 5.6778 48.3205 6.70168C49.4229 7.76801 50.087 9.20885 50.1821 10.7408C50.2579 11.219 50.1926 11.709 49.9942 12.1505C49.7957 12.5921 49.4729 12.966 49.0652 13.2264C49.0031 13.4066 48.879 13.4066 48.6929 13.4687ZM45.6524 13.0959C45.7144 13.0337 45.7144 13.0337 45.7765 13.0337C46.1793 12.8109 46.4775 12.4371 46.6054 11.9944C46.7334 11.5517 46.6807 11.0763 46.459 10.6724C46.0645 9.83447 45.4928 9.09238 44.7836 8.49752C43.7061 7.6783 42.4857 7.06719 41.1847 6.69546C38.6589 5.89943 35.9858 5.68697 33.3663 6.07406C31.7727 6.28149 30.2225 6.74302 28.7745 7.44114C27.7721 7.88816 26.9437 8.65219 26.4166 9.61603C26.1618 10.0514 26.0778 10.566 26.181 11.0599C26.2843 11.5538 26.5673 11.9916 26.9751 12.288C27.1326 12.3966 27.2782 12.5216 27.4094 12.6609C27.0992 13.158 26.7269 13.593 26.4787 14.0901C25.8725 15.3209 25.4741 16.6437 25.2997 18.0049C24.9802 19.7671 24.876 21.5616 24.9894 23.3489C25.0503 24.3374 25.3482 25.2966 25.8581 26.1452C26.0694 26.5483 26.3796 26.891 26.7595 27.141C27.1394 27.391 27.5766 27.5402 28.0299 27.5744C28.427 27.5948 28.8248 27.5528 29.2089 27.4502L33.3663 26.5181C34.7929 26.2082 36.262 26.1452 37.7098 26.3316C39.2611 26.5181 40.8124 26.7666 42.4257 26.953C43.3704 27.0979 44.33 27.1188 45.2801 27.0152C45.8215 26.9733 46.3324 26.747 46.7275 26.3739C47.1227 26.0008 47.3783 25.5034 47.4518 24.9646C47.7919 23.0374 47.9167 21.0783 47.8241 19.1234C47.802 17.9309 47.6565 16.7439 47.3898 15.5815C47.0795 14.5251 46.6886 13.6551 45.6524 13.0959Z" fill="#536E96"/>
</svg>
