<svg width="160" height="36" viewBox="0 0 160 36" fill="none" xmlns="http://www.w3.org/2000/svg">
<path d="M26.3724 6.06689C26.7519 6.13005 27.0682 6.25637 27.4478 6.31953C32.6984 7.33006 36.3676 11.3722 37.0002 16.7406C37.6328 22.6143 33.9004 28.0459 28.2069 29.4354C27.1947 29.6881 26.1826 29.8144 25.1704 29.8144C20.4258 29.8775 15.7446 29.8144 11 29.8775C11 28.6775 11 27.5407 11 26.3407C12.202 23.2459 13.2774 22.5512 16.6302 22.5512C19.5402 22.5512 22.3869 22.5512 25.2969 22.5512C27.7008 22.5512 29.6619 20.7828 29.8517 18.5091C30.0415 15.9196 28.46 13.8354 26.0561 13.4564C23.6521 13.0775 21.438 14.5933 20.8054 16.9301C20.7422 17.1827 20.6789 17.4354 20.6156 17.688C20.4891 17.6248 20.4258 17.6248 20.3626 17.5617C18.6545 15.8564 16.9465 14.1511 15.2385 12.509C14.9222 12.1932 15.0487 11.9406 15.2385 11.6248C16.8832 9.09849 19.1606 7.33006 22.0706 6.57216C22.7032 6.38269 23.3358 6.25637 23.9685 6.13005C24.8541 6.06689 25.6132 6.06689 26.3724 6.06689Z" fill="#536E96"/>
<path d="M141.318 29.2423C139.926 30.1265 138.471 30.5054 136.826 30.1897C134.359 29.7476 132.904 27.8528 132.904 25.0107C132.904 19.8317 132.904 14.7159 132.904 9.53693C132.904 8.96851 132.904 8.33693 132.904 7.7685C132.904 7.57903 133.031 7.26324 133.221 7.20008C134.676 6.82113 136.131 6.44218 137.649 6.06323C137.649 6.50534 137.649 6.82113 137.649 7.13692C137.649 12.758 137.649 18.3791 137.649 24.0002C137.649 24.3159 137.649 24.6949 137.712 25.0107C137.902 25.7686 138.345 26.1475 139.167 26.0212C139.61 25.9581 139.863 26.0844 139.989 26.4633C140.369 27.2844 140.812 28.1054 141.255 28.9265C141.318 29.0528 141.318 29.1791 141.318 29.2423Z" fill="#536E96"/>
<path d="M98.4268 6.06316C98.9961 6.18948 99.5022 6.31579 100.072 6.50527C103.108 7.5158 105.006 10.0421 105.069 13.2C105.132 16.7369 103.488 19.3895 100.451 20.5895C100.198 20.6527 100.008 20.779 99.6287 20.9053C101.653 23.8738 103.677 26.779 105.765 29.8738C105.006 29.8738 104.5 29.8738 103.93 29.8738C102.729 29.8738 101.59 29.8738 100.388 29.8738C99.8818 29.8738 99.5655 29.6843 99.2492 29.2422C97.6677 26.779 96.0861 24.3159 94.5679 21.7895C94.3148 21.3474 93.9985 21.158 93.4292 21.158C92.9231 21.2211 92.3537 21.2211 91.7844 21.158C91.2151 21.0948 90.962 21.2843 90.962 21.9159C91.0253 24.2527 90.962 26.5896 90.962 28.9264C90.962 29.558 90.7722 29.8106 90.0764 29.8106C88.8744 29.7475 87.7357 29.8106 86.5338 29.8106C86.0277 29.8106 85.8379 29.6843 85.8379 29.1791C85.8379 22.358 85.8379 15.5369 85.8379 8.7158C85.8379 7.38948 86.597 6.56842 87.7357 6C91.4681 6.06316 94.9474 6.06316 98.4268 6.06316ZM94.4414 16.4843C95.3903 16.4843 96.2759 16.4843 97.2248 16.4211C98.8064 16.2948 99.7553 15.2843 99.8185 13.6421C99.8185 12 98.8696 10.8632 97.2248 10.8C95.3903 10.7369 93.4924 10.8 91.6579 10.7369C91.2151 10.7369 91.0885 10.9263 91.0885 11.3053C91.0885 12.8211 91.0885 14.3369 91.0885 15.8527C91.0885 16.3579 91.2783 16.4843 91.7211 16.4843C92.6701 16.4843 93.5557 16.4843 94.4414 16.4843Z" fill="#536E96"/>
<path d="M113.926 30.3157C109.941 30.3157 106.714 28.2315 105.386 24.8841C103.931 21.2841 104.817 17.1157 107.474 14.5893C111.839 10.484 121.328 11.4314 122.972 19.0104C124.427 25.2631 120.189 30.3789 113.926 30.3157ZM114.053 16.6735C111.396 16.6735 109.624 18.5051 109.624 21.2841C109.624 23.9999 111.396 25.8946 113.989 25.8946C116.583 25.8946 118.354 24.0631 118.354 21.3473C118.354 18.5683 116.646 16.6735 114.053 16.6735Z" fill="#536E96"/>
<path d="M129.488 8.08447C129.488 8.52658 129.551 8.84237 129.551 9.22132C129.551 14.1477 129.551 19.0108 129.551 23.9372C129.551 24.253 129.551 24.6319 129.614 24.9477C129.678 25.8319 130.184 26.2109 131.069 26.0846C131.512 26.0214 131.765 26.1477 131.892 26.5267C132.208 27.2846 132.588 28.0425 133.031 28.7372C133.22 29.053 133.157 29.3056 132.841 29.4951C131.069 30.4425 129.235 30.6951 127.337 29.7477C125.819 28.9898 125.186 27.6635 124.933 26.0846C124.807 25.5161 124.807 24.8846 124.807 24.253C124.807 19.5161 124.807 14.8424 124.807 10.1055C124.807 9.34763 125.06 9.095 125.756 8.90553C126.894 8.71605 128.096 8.40026 129.488 8.08447Z" fill="#536E96"/>
<path d="M57.1169 6.06316C59.1413 11.2421 61.1656 16.4843 63.2532 21.6632C64.2021 24.0632 65.151 26.4633 66.1 28.8633C66.2265 29.1159 66.2897 29.4317 66.4163 29.8106C65.2776 29.8106 64.2654 29.8106 63.19 29.8106C61.1024 29.8106 61.1024 29.8106 60.3432 27.7896C60.0269 26.9685 59.7106 26.2106 59.4576 25.3896C59.3311 25.0106 59.078 24.8211 58.6352 24.8211C55.6619 24.8211 52.6887 24.8211 49.6522 24.8211C49.2093 24.8211 49.0196 24.9475 48.8298 25.3896C48.387 26.6527 47.8809 27.9159 47.438 29.1791C47.2483 29.6212 47.0585 29.8738 46.5524 29.8106C45.0341 29.7475 43.5159 29.8106 41.8711 29.8106C41.9976 29.4949 42.0609 29.2422 42.1241 28.9896C44.8443 21.979 47.6278 14.9685 50.348 7.95791C50.7276 7.01053 51.3602 6.44211 52.1826 6C53.8906 6.06316 55.4722 6.06316 57.1169 6.06316ZM50.9174 20.0843C53.1315 20.0843 55.2824 20.0843 57.4332 20.0843C56.3578 17.179 55.2824 14.3369 54.1437 11.3053C53.005 14.3369 51.9295 17.179 50.9174 20.0843Z" fill="#536E96"/>
<path d="M83.5609 6.06348C83.5609 6.31611 83.6242 6.56874 83.6242 6.82138C83.6242 14.2109 83.6242 21.6004 83.6242 28.9899C83.6242 29.7478 83.4344 30.0004 82.6753 29.9373C81.7264 29.8741 80.8407 29.9373 79.8918 29.9373C79.449 29.9373 79.2592 29.811 79.2592 29.3688C79.2592 28.8636 79.1327 28.4215 79.0694 27.9162C79.0062 27.9162 78.9429 27.9162 78.8796 27.9794C76.3492 31.3268 71.0353 31.1373 67.9988 28.0425C64.3929 24.3162 64.646 17.5583 68.5049 14.2109C71.3516 11.7477 75.9696 11.6214 78.4368 14.0214C78.5001 14.0846 78.5633 14.0846 78.6899 14.1477C78.6899 13.9583 78.7531 13.7688 78.7531 13.5793C78.7531 12.253 78.8164 10.9267 78.7531 9.60033C78.6899 8.02138 79.1959 6.82138 80.7142 6.18979C81.7264 6.06348 82.612 6.06348 83.5609 6.06348ZM70.466 21.3478C70.466 21.5372 70.466 21.7899 70.5292 22.0425C70.719 24.1267 72.3005 25.6425 74.3881 25.832C76.539 26.0215 78.3735 24.8846 78.9429 22.8636C79.1327 22.1688 79.1959 21.3478 79.1327 20.653C79.0062 18.7583 77.8042 17.3056 76.0329 16.8635C72.9331 16.0425 70.466 18.0004 70.466 21.3478Z" fill="#536E96"/>
</svg>
