<svg width="160" height="36" viewBox="0 0 160 36" fill="none" xmlns="http://www.w3.org/2000/svg">
<path d="M117.863 15.1593C119.062 15.1593 120.197 15.1593 121.332 15.1593C121.332 15.7909 121.332 16.4225 121.332 17.1173C121.395 17.1173 121.395 17.1804 121.458 17.1804C121.963 16.2962 122.593 15.6015 123.602 15.412C124.485 15.2225 125.494 15.2225 126.504 15.0962C126.44 15.2857 126.44 15.412 126.44 15.5383C126.062 16.4857 125.747 17.433 125.368 18.3804C125.305 18.633 125.179 18.7594 124.864 18.6962C124.675 18.6962 124.485 18.6962 124.233 18.6962C122.467 18.6962 121.521 19.5804 121.521 21.3489C121.458 23.4962 121.521 25.6436 121.458 27.791C121.458 27.9805 121.458 28.1699 121.458 28.3594C120.26 28.3594 119.062 28.3594 117.863 28.3594C117.863 23.9383 117.863 19.5804 117.863 15.1593Z" fill="#536E96"/>
<path d="M130.983 28.3591C129.785 28.3591 128.65 28.3591 127.451 28.3591C127.451 26.717 127.451 25.138 127.451 23.5591C127.451 21.9801 127.451 20.338 127.451 18.6959C127.01 18.6959 126.631 18.6959 126.127 18.6959C126.442 17.7485 126.821 16.8643 127.136 16.0432C127.451 15.159 127.451 15.2222 128.397 15.2222C129.28 15.2222 130.163 15.2222 131.046 15.2222C130.983 19.5801 130.983 23.938 130.983 28.3591Z" fill="#536E96"/>
<path d="M68.672 23.0538C65.3294 23.0538 61.9869 23.0538 58.6443 23.0538C58.6443 23.938 59.5272 24.8854 60.6624 25.2644C62.113 25.7065 63.942 25.6433 65.2664 23.6222C66.2124 24.1907 67.0953 24.6959 68.0414 25.2644C66.7169 27.917 63.1851 29.3696 59.7164 28.296C56.3738 27.2223 54.4187 23.6222 55.3017 20.1485C56.1846 16.6117 59.7164 14.4012 63.2482 15.0327C66.7169 15.6643 69.1766 18.6327 68.672 23.0538ZM58.7704 20.1485C60.9147 20.1485 62.9329 20.1485 65.0141 20.1485C64.8249 19.0749 63.6897 18.1906 62.4283 18.1275C60.7255 17.938 59.338 18.6959 58.7704 20.1485Z" fill="#536E96"/>
<path d="M81.7906 28.3592C80.5293 28.3592 79.3941 28.3592 78.1327 28.3592C78.1327 28.1698 78.1327 27.9803 78.1327 27.854C78.1327 25.5171 78.1327 23.1803 78.1327 20.8434C78.1327 20.5276 78.1327 20.275 78.0696 19.9592C77.8804 18.8224 77.1236 18.0645 76.1145 18.0013C74.7901 17.875 73.8441 18.4434 73.4657 19.6434C73.2765 20.1487 73.2134 20.7803 73.2134 21.2855C73.2134 23.4329 73.2134 25.5803 73.2134 27.7277C73.2134 27.9171 73.2134 28.1066 73.2134 28.2961C72.0151 28.2961 70.8799 28.2961 69.6816 28.2961C69.6816 23.9382 69.6816 19.5803 69.6816 15.1592C70.8169 15.1592 72.0151 15.1592 73.2134 15.1592C73.2134 15.6013 73.2134 15.9802 73.2134 16.5487C73.4657 16.3592 73.5918 16.1697 73.781 16.0434C75.2947 14.7171 77.0606 14.5276 78.8895 15.1592C80.6554 15.7908 81.5384 17.1802 81.7906 18.9487C81.8537 19.4539 81.9168 19.9592 81.9168 20.4645C81.9168 22.8645 81.9168 25.2645 81.9168 27.6645C81.7906 27.9171 81.7906 28.1066 81.7906 28.3592Z" fill="#536E96"/>
<path d="M145.803 28.3593C144.605 28.3593 143.47 28.3593 142.271 28.3593C142.271 27.9172 142.271 27.475 142.271 26.9698C142.145 27.0329 142.082 27.0961 142.019 27.0961C139.875 29.3066 136.28 28.9908 134.009 26.9066C132.244 25.2645 131.739 23.1171 131.928 20.8434C132.117 18.8855 132.937 17.3066 134.514 16.1066C136.658 14.5276 140.064 14.4013 142.019 16.2961C142.019 16.2961 142.082 16.2961 142.145 16.3592C142.145 13.9592 142.145 11.5592 142.145 9.15918C143.343 9.15918 144.542 9.15918 145.74 9.15918C145.803 15.5382 145.803 21.9171 145.803 28.3593ZM142.334 21.7277C142.334 19.7698 140.884 18.1908 138.929 18.1908C136.911 18.1908 135.397 19.7066 135.397 21.7277C135.397 23.6856 136.974 25.3277 138.929 25.3277C140.884 25.3277 142.334 23.7487 142.334 21.7277Z" fill="#536E96"/>
<path d="M93.016 28.2963C93.016 27.8542 93.016 27.4121 93.016 27.0331C92.9529 27.0331 92.8899 27.0331 92.8899 27.0331C90.8717 29.1805 87.5291 29.1173 85.2587 27.3489C83.1143 25.7068 82.4837 23.4331 82.7359 20.9068C82.9251 18.6962 83.9342 16.9278 85.8263 15.791C87.9706 14.5278 90.9348 14.5278 93.016 16.4225C93.016 13.9594 93.016 11.5594 93.016 9.09619C94.2774 9.09619 95.4126 9.09619 96.6109 9.09619C96.6109 15.4752 96.6109 21.9173 96.6109 28.2963C95.4126 28.2963 94.2774 28.2963 93.016 28.2963ZM93.1422 21.7278C93.1422 19.7068 91.6916 18.191 89.7365 18.191C87.7183 18.191 86.2047 19.7699 86.2047 21.7278C86.2047 23.7489 87.7814 25.2647 89.7365 25.2647C91.6285 25.3279 93.1422 23.7489 93.1422 21.7278Z" fill="#536E96"/>
<path d="M116.098 13.7696C115.026 14.4012 113.954 15.0328 112.945 15.6644C112.44 15.0959 112.062 14.4644 111.557 13.9591C108.656 11.1801 102.854 12.0012 101.403 16.9907C100.142 21.2854 103.422 25.3276 107.836 25.0749C110.17 24.9486 111.81 23.8749 112.756 21.7275C112.819 21.5381 112.882 21.3486 113.008 21.0328C112.819 21.0328 112.629 21.0328 112.44 21.0328C110.737 21.0328 109.098 21.0328 107.395 21.0328C107.016 21.0328 106.89 20.9065 106.89 20.5275C106.89 19.5802 106.89 18.5696 106.89 17.5591C110.233 17.5591 113.575 17.5591 116.855 17.5591C117.359 22.8644 114.521 27.4118 109.602 28.4223C104.115 29.5592 98.5653 26.4013 97.6193 20.3381C96.7994 15.0959 99.9528 10.1696 105.187 9.09591C109.161 8.27485 113.449 9.66433 115.783 13.2644C115.846 13.3907 115.972 13.5801 116.098 13.7696Z" fill="#536E96"/>
<path d="M129.28 13.138C128.081 13.138 127.135 12.1906 127.072 10.9906C127.072 9.79064 128.018 8.84326 129.28 8.84326C130.478 8.84326 131.424 9.79064 131.424 10.9906C131.424 12.1275 130.415 13.138 129.28 13.138Z" fill="#536E96"/>
<path d="M40.1016 25.1382C41.1737 24.254 42.3089 23.4329 43.3811 22.5487C43.8226 23.054 44.264 23.6224 44.7686 24.0013C45.8407 24.8856 47.039 25.2645 48.4265 25.0119C49.5617 24.7592 50.3816 23.9382 50.5077 22.7382C50.5708 21.9171 50.1924 21.3487 49.5617 20.9698C48.7418 20.5908 47.8589 20.275 47.039 19.9592C46.2191 19.6434 45.3362 19.3908 44.5163 19.075C42.3089 18.254 41.0476 16.8013 41.0476 14.4013C41.0476 12.0645 42.2459 10.4223 44.3271 9.47497C47.1021 8.2118 51.3276 8.59075 53.9134 11.6223C52.9043 12.3802 51.9583 13.1381 50.9492 13.896C50.8231 13.7697 50.76 13.7066 50.6969 13.5802C49.6248 12.2539 47.7958 11.7487 46.2822 12.3171C45.4623 12.6329 44.9578 13.2013 44.8947 14.0855C44.8316 14.9066 45.2731 15.475 45.9669 15.7908C47.039 16.296 48.1742 16.675 49.3095 17.0539C50.5077 17.4961 51.7691 17.9382 52.7151 18.8224C54.4179 20.3382 54.8594 22.8645 53.7873 25.075C52.8412 27.0961 51.1384 28.2329 48.931 28.5487C45.5254 28.9908 42.6243 27.9803 40.2908 25.3908C40.2277 25.3277 40.1646 25.2645 40.1016 25.1382Z" fill="#536E96"/>
<path opacity="0.62" d="M36.003 4.73877H20.0469V20.7178H36.003V4.73877Z" fill="#536E96"/>
<path opacity="0.62" d="M28.1193 12.7598H12.4785V28.1704H28.1193V12.7598Z" fill="#536E96"/>
</svg>
