<svg width="160" height="36" viewBox="0 0 160 36" fill="none" xmlns="http://www.w3.org/2000/svg">
<path fill-rule="evenodd" clip-rule="evenodd" d="M24.6577 24.0228H4.28681C3.83519 24.0228 3.40207 23.8432 3.08273 23.5234C2.76339 23.2036 2.58398 22.7698 2.58398 22.3176C2.58398 21.8653 2.76339 21.4316 3.08273 21.1118C3.40207 20.792 3.83519 20.6123 4.28681 20.6123H24.6577C25.1093 20.6123 25.5424 20.792 25.8618 21.1118C26.1811 21.4316 26.3605 21.8653 26.3605 22.3176C26.3605 22.7698 26.1811 23.2036 25.8618 23.5234C25.5424 23.8432 25.1093 24.0228 24.6577 24.0228Z" fill="#536E96"/>
<path fill-rule="evenodd" clip-rule="evenodd" d="M20.3056 34.4441C18.6625 34.4392 17.0281 34.2053 15.4494 33.7494C15.234 33.683 15.0339 33.5748 14.8603 33.431C14.6867 33.2872 14.5431 33.1105 14.4377 32.9111C14.2248 32.5084 14.1803 32.0375 14.3142 31.602C14.448 31.1665 14.7491 30.802 15.1512 30.5888C15.5533 30.3756 16.0236 30.3311 16.4585 30.4651C17.7059 30.8431 19.0023 31.0347 20.3056 31.0336C23.0961 31.0215 25.8091 30.1131 28.0455 28.4418C30.282 26.7706 31.924 24.4247 32.7299 21.7493C32.872 21.3195 33.1744 20.9613 33.574 20.7495C33.9736 20.5376 34.4394 20.4885 34.8742 20.6125C35.3034 20.7548 35.6611 21.0576 35.8726 21.4577C36.0842 21.8579 36.1332 22.3244 36.0094 22.7598C35.0002 26.1429 32.9257 29.1085 30.0956 31.2142C27.2654 33.32 23.8313 34.4529 20.3056 34.4441Z" fill="#536E96"/>
<path fill-rule="evenodd" clip-rule="evenodd" d="M36.3257 15.37H15.9548C15.5032 15.37 15.07 15.1904 14.7507 14.8706C14.4314 14.5508 14.252 14.117 14.252 13.6648C14.252 13.2125 14.4314 12.7787 14.7507 12.4589C15.07 12.1391 15.5032 11.9595 15.9548 11.9595H36.3257C36.5495 11.9586 36.7713 12.0022 36.9783 12.0876C37.1853 12.173 37.3733 12.2986 37.5316 12.4571C37.6899 12.6156 37.8153 12.8039 37.9006 13.0112C37.9859 13.2185 38.0293 13.4406 38.0285 13.6648C38.0204 14.1145 37.8384 14.5435 37.5208 14.8616C37.2032 15.1797 36.7748 15.3619 36.3257 15.37Z" fill="#536E96"/>
<path fill-rule="evenodd" clip-rule="evenodd" d="M59.4702 17.2651L56.6952 16.6967C55.3077 16.3809 54.5509 15.5599 54.5509 14.2967C54.5509 12.6546 55.9384 11.5177 57.8935 11.5177C58.6866 11.485 59.4684 11.7147 60.1181 12.1713C60.7679 12.6279 61.2494 13.286 61.4884 14.0441C61.5141 14.1415 61.5615 14.2319 61.6271 14.3085C61.6926 14.385 61.7745 14.4458 61.8668 14.4862C62.0512 14.5383 62.243 14.5596 62.4344 14.5493L63.885 14.0441C63.9732 14.017 64.0551 13.9723 64.1256 13.9126C64.1961 13.8529 64.2538 13.7795 64.2951 13.6968C64.3364 13.6141 64.3604 13.5238 64.3658 13.4315C64.3712 13.3392 64.3578 13.2468 64.3264 13.1598C63.948 11.8335 62.5605 8.73877 57.8935 8.73877C54.4248 8.73877 51.4606 11.3914 51.4606 14.5493C51.4606 17.2651 53.2265 19.2862 56.1907 19.9178L58.8395 20.4862C60.4793 20.802 61.3622 21.8125 61.3622 23.0757C61.3622 24.7178 59.9747 25.7283 57.8304 25.7283C56.8655 25.7724 55.9175 25.4634 55.1633 24.8592C54.409 24.2549 53.9 23.3965 53.731 22.4441C53.6958 22.2608 53.5902 22.0986 53.4369 21.9924C53.2836 21.8861 53.0949 21.8442 52.9112 21.8757C52.8481 21.8757 52.8481 21.8757 52.8481 21.9388L51.2083 22.4441C51.0428 22.5021 50.9024 22.6154 50.8105 22.7649C50.7186 22.9144 50.6809 23.0911 50.7038 23.2652C51.2083 25.9178 53.3526 28.6968 57.8935 28.6968C61.7406 28.6968 64.5787 26.1704 64.5787 22.8862C64.5787 19.9809 62.7497 17.9599 59.4702 17.2651ZM75.994 19.7915C75.994 19.8546 75.994 19.8546 75.9309 19.9178C75.8678 19.9809 75.8678 19.9809 75.8048 19.9809H69.8764C69.8133 19.9809 69.8133 19.9178 69.7503 19.9178C69.6872 19.9178 69.6872 19.8546 69.6872 19.7915C69.8261 19.0802 70.2134 18.4417 70.7797 17.9903C71.3459 17.539 72.0542 17.3043 72.7775 17.3283C74.5434 17.3283 75.7417 18.2757 75.994 19.7915ZM72.7775 14.5493C69.6872 14.5493 66.4707 17.1388 66.4707 21.4967C66.4356 22.4523 66.5966 23.4049 66.9437 24.2957C67.2908 25.1865 67.8167 25.9965 68.4889 26.6757C69.0938 27.2797 69.812 27.758 70.6021 28.0832C71.3922 28.4083 72.2386 28.5739 73.0928 28.5704C74.3243 28.6176 75.5407 28.2857 76.5781 27.6195C77.6155 26.9532 78.4242 25.9846 78.8951 24.8441C78.9585 24.66 78.9585 24.4598 78.8951 24.2757C78.8547 24.1833 78.7941 24.1012 78.7176 24.0356C78.6412 23.97 78.5509 23.9225 78.4536 23.8967L77.1292 23.4546C76.9611 23.4005 76.7792 23.409 76.6169 23.4786C76.4546 23.5483 76.323 23.6744 76.2462 23.8336C76.0052 24.4636 75.5689 24.9998 75.0014 25.3635C74.434 25.7272 73.7651 25.8993 73.0928 25.8546C72.2325 25.8684 71.3983 25.5579 70.7558 24.9846C70.1134 24.4114 69.7094 23.6174 69.6241 22.7599C69.6241 22.6967 69.6241 22.6967 69.6872 22.6336C69.7212 22.5993 69.7655 22.5771 69.8133 22.5704H78.4536C78.6371 22.5688 78.8126 22.495 78.9423 22.3651C79.0721 22.2352 79.1457 22.0594 79.1473 21.8757V21.4967C79.1473 17.202 76.6877 14.5493 72.7775 14.5493ZM87.4723 24.9073C85.391 24.9073 84.1297 23.4546 84.1297 21.1809C84.1297 18.9072 85.4541 17.4546 87.4723 17.4546C89.4905 17.4546 90.8149 18.9704 90.8149 21.1809C90.8149 23.3915 89.4274 24.9073 87.4723 24.9073ZM92.9592 14.9914H91.3825C91.2867 14.9938 91.1923 15.0155 91.105 15.0552C91.0178 15.0949 90.9394 15.1519 90.8747 15.2226C90.8099 15.2934 90.7601 15.3765 90.7281 15.467C90.6962 15.5575 90.6828 15.6535 90.6887 15.7493C90.6821 15.7972 90.6599 15.8416 90.6257 15.8756C90.5626 15.8756 90.5626 15.9388 90.4995 15.8756C89.5567 15.109 88.371 14.7057 87.1569 14.7388C83.6251 14.7388 81.1024 17.4546 81.1024 21.1809C81.1024 24.9073 83.6251 27.6231 87.1569 27.6231C88.3815 27.6538 89.5734 27.2259 90.4995 26.4231C90.5323 26.387 90.5772 26.3645 90.6257 26.3599C90.6887 26.3599 90.6887 26.4231 90.6887 26.4862V27.0546C90.6887 29.6441 89.5535 30.8441 87.0939 30.8441C86.3803 30.8671 85.681 30.64 85.1169 30.2018C84.5527 29.7636 84.1589 29.142 84.0036 28.4441C83.9359 28.2733 83.8277 28.1215 83.6882 28.002C83.6066 27.9445 83.5117 27.9085 83.4125 27.8975C83.3133 27.8864 83.2129 27.9007 83.1206 27.9389L81.607 28.2546C81.4149 28.297 81.2474 28.4138 81.141 28.5795C81.0346 28.7452 80.9981 28.9463 81.0394 29.1389C81.607 31.7915 84.0036 33.6231 87.0939 33.6231C89.3643 33.6231 91.1302 32.9284 92.2654 31.5389C93.2658 30.2399 93.7791 28.6306 93.716 26.9915V15.6862C93.7136 15.5902 93.692 15.4957 93.6523 15.4083C93.6126 15.321 93.5558 15.2425 93.4851 15.1776C93.4145 15.1128 93.3315 15.0629 93.2411 15.0309C93.1507 14.9989 93.0548 14.9855 92.9592 14.9914ZM111.564 14.6125C110.779 14.5706 109.995 14.7213 109.28 15.0515C108.566 15.3817 107.943 15.8814 107.465 16.5072C107.402 16.5704 107.402 16.5704 107.339 16.5704C107.322 16.5704 107.306 16.5637 107.294 16.5519C107.282 16.54 107.276 16.524 107.276 16.5072C106.867 15.901 106.311 15.409 105.66 15.0775C105.009 14.746 104.284 14.586 103.555 14.6125C102.351 14.5927 101.182 15.0202 100.275 15.8125C100.25 15.8364 100.22 15.8544 100.188 15.8653C100.155 15.8762 100.12 15.8798 100.086 15.8756C100.023 15.8125 100.023 15.8125 100.023 15.7493C100.033 15.6557 100.022 15.5609 99.9902 15.4721C99.9589 15.3833 99.9081 15.3027 99.8416 15.236C99.7751 15.1694 99.6945 15.1186 99.6058 15.0872C99.5171 15.0558 99.4226 15.0446 99.329 15.0546H97.7523C97.5688 15.0562 97.3933 15.13 97.2636 15.2599C97.1339 15.3898 97.0602 15.5656 97.0586 15.7493V27.4968C97.0486 27.5904 97.0598 27.6851 97.0911 27.7739C97.1225 27.8628 97.1733 27.9434 97.2398 28.01C97.3063 28.0766 97.3868 28.1275 97.4755 28.1589C97.5642 28.1903 97.6588 28.2014 97.7523 28.1915H99.329C99.5125 28.1898 99.688 28.1161 99.8178 27.9862C99.9475 27.8563 100.021 27.6805 100.023 27.4968V20.2967C100.023 18.5283 101.095 17.3914 102.672 17.3914C104.753 17.3914 105.068 19.0336 105.068 19.9809V27.4968C105.058 27.5904 105.069 27.6851 105.101 27.7739C105.132 27.8628 105.183 27.9434 105.249 28.01C105.316 28.0766 105.396 28.1275 105.485 28.1589C105.574 28.1903 105.668 28.2014 105.762 28.1915H107.339C107.522 28.1898 107.698 28.1161 107.827 27.9862C107.957 27.8563 108.031 27.6805 108.032 27.4968V20.2336C108.032 18.5283 109.105 17.3283 110.681 17.3283C112.762 17.3283 113.078 18.9704 113.078 19.9178V27.4336C113.068 27.5273 113.079 27.622 113.11 27.7108C113.142 27.7996 113.192 27.8803 113.259 27.9469C113.325 28.0135 113.406 28.0644 113.495 28.0958C113.583 28.1271 113.678 28.1383 113.772 28.1283H115.348C115.442 28.1383 115.536 28.1271 115.625 28.0958C115.714 28.0644 115.794 28.0135 115.861 27.9469C115.927 27.8803 115.978 27.7996 116.009 27.7108C116.041 27.622 116.052 27.5273 116.042 27.4336V19.6651C116.168 16.1914 113.835 14.6125 111.564 14.6125ZM122.096 19.9809C122.033 19.9809 122.033 19.9178 121.97 19.9178C121.907 19.9178 121.907 19.8546 121.907 19.7915C122.046 19.0802 122.434 18.4417 123 17.9903C123.566 17.539 124.274 17.3043 124.998 17.3283C126.7 17.3283 127.899 18.2757 128.151 19.7915C128.151 19.8546 128.151 19.8546 128.088 19.9178C128.025 19.9809 128.025 19.9809 127.962 19.9809H122.096ZM124.998 14.6125C121.907 14.6125 118.691 17.202 118.691 21.5599C118.656 22.5155 118.817 23.4681 119.164 24.3589C119.511 25.2497 120.037 26.0597 120.709 26.7388C121.317 27.334 122.037 27.8023 122.828 28.1167C123.618 28.4312 124.463 28.5854 125.313 28.5704C126.543 28.6087 127.755 28.2732 128.791 27.608C129.827 26.9429 130.637 25.9793 131.115 24.8441C131.179 24.66 131.179 24.4598 131.115 24.2757C131.075 24.1833 131.014 24.1012 130.938 24.0356C130.861 23.97 130.771 23.9225 130.674 23.8967L129.349 23.4546C129.182 23.3931 128.997 23.3981 128.833 23.4685C128.669 23.539 128.537 23.6696 128.466 23.8336C128.225 24.4636 127.789 24.9998 127.222 25.3635C126.654 25.7272 125.985 25.8993 125.313 25.8546C124.453 25.8684 123.618 25.5579 122.976 24.9846C122.333 24.4114 121.93 23.6174 121.844 22.7599C121.844 22.6967 121.844 22.6967 121.907 22.6336C121.941 22.5993 121.986 22.5771 122.033 22.5704H130.674C130.857 22.5688 131.033 22.495 131.162 22.3651C131.292 22.2352 131.366 22.0594 131.367 21.8757V21.4967C131.304 17.202 128.908 14.5493 124.998 14.6125ZM140.638 14.6125C140.021 14.5955 139.406 14.7043 138.831 14.9323C138.257 15.1603 137.734 15.5027 137.296 15.9388C137.233 16.002 137.233 16.002 137.107 16.002C136.98 16.002 137.044 15.9388 137.044 15.8756V15.8125C137.053 15.7188 137.042 15.6241 137.011 15.5353C136.98 15.4465 136.929 15.3658 136.862 15.2992C136.796 15.2326 136.715 15.1817 136.627 15.1503C136.538 15.1189 136.443 15.1078 136.35 15.1177H134.836C134.743 15.1078 134.648 15.1189 134.559 15.1503C134.471 15.1817 134.39 15.2326 134.324 15.2992C134.257 15.3658 134.206 15.4465 134.175 15.5353C134.144 15.6241 134.132 15.7188 134.142 15.8125V27.5599C134.132 27.6536 134.144 27.7483 134.175 27.8371C134.206 27.9259 134.257 28.0066 134.324 28.0732C134.39 28.1398 134.471 28.1907 134.559 28.2221C134.648 28.2535 134.743 28.2646 134.836 28.2546H136.413C136.506 28.2646 136.601 28.2535 136.69 28.2221C136.778 28.1907 136.859 28.1398 136.925 28.0732C136.992 28.0066 137.043 27.9259 137.074 27.8371C137.105 27.7483 137.117 27.6536 137.107 27.5599V20.6125C137.107 19.0967 137.8 17.3914 139.755 17.3914C141.521 17.3914 142.404 18.3388 142.404 20.2967V27.4336C142.394 27.5273 142.405 27.622 142.437 27.7108C142.468 27.7996 142.519 27.8803 142.585 27.9469C142.652 28.0135 142.733 28.0644 142.821 28.0958C142.91 28.1271 143.004 28.1383 143.098 28.1283H144.675C144.768 28.1383 144.863 28.1271 144.952 28.0958C145.04 28.0644 145.121 28.0135 145.187 27.9469C145.254 27.8803 145.305 27.7996 145.336 27.7108C145.367 27.622 145.378 27.5273 145.368 27.4336V19.9178C145.432 16.6335 143.603 14.6125 140.638 14.6125ZM152.81 17.7704H154.702C154.796 17.7803 154.891 17.7692 154.979 17.7378C155.068 17.7064 155.149 17.6555 155.215 17.5889C155.282 17.5223 155.332 17.4417 155.364 17.3528C155.395 17.264 155.406 17.1693 155.396 17.0756V15.6862C155.406 15.5925 155.395 15.4978 155.364 15.409C155.332 15.3202 155.282 15.2395 155.215 15.1729C155.149 15.1063 155.068 15.0554 154.979 15.024C154.891 14.9926 154.796 14.9815 154.702 14.9914H152.81C152.747 14.9914 152.621 14.9283 152.621 14.8651V11.7704C152.631 11.6767 152.62 11.582 152.589 11.4932C152.557 11.4044 152.507 11.3237 152.44 11.2571C152.374 11.1905 152.293 11.1396 152.204 11.1082C152.116 11.0768 152.021 11.0657 151.928 11.0756H150.54C150.446 11.0657 150.352 11.0768 150.263 11.1082C150.175 11.1396 150.094 11.1905 150.027 11.2571C149.961 11.3237 149.91 11.4044 149.879 11.4932C149.847 11.582 149.836 11.6767 149.846 11.7704V13.4125C149.871 13.6342 149.846 13.8588 149.773 14.0695C149.699 14.2802 149.579 14.4715 149.422 14.6293C149.264 14.7871 149.073 14.9073 148.863 14.981C148.652 15.0546 148.428 15.0798 148.207 15.0546H147.954C147.861 15.0446 147.766 15.0558 147.677 15.0872C147.589 15.1186 147.508 15.1694 147.442 15.236C147.375 15.3027 147.324 15.3833 147.293 15.4721C147.262 15.5609 147.251 15.6557 147.261 15.7493V17.1388C147.251 17.2325 147.262 17.3272 147.293 17.416C147.324 17.5048 147.375 17.5855 147.442 17.6521C147.508 17.7187 147.589 17.7696 147.677 17.801C147.766 17.8324 147.861 17.8435 147.954 17.8335H149.468C149.531 17.8335 149.657 17.8967 149.657 17.9599V24.4652C149.657 26.8652 151.108 28.3178 153.504 28.3178C153.97 28.3262 154.435 28.2839 154.892 28.1915C155.049 28.1541 155.19 28.0659 155.293 27.9403C155.396 27.8148 155.454 27.6589 155.459 27.4968V26.2336C155.469 26.1399 155.458 26.0452 155.427 25.9564C155.395 25.8676 155.345 25.7869 155.278 25.7203C155.212 25.6537 155.131 25.6028 155.042 25.5714C154.954 25.54 154.859 25.5289 154.766 25.5388H154.702C154.513 25.5388 154.387 25.602 154.261 25.602C153.189 25.602 152.747 25.2231 152.747 24.1494V17.9599C152.621 17.8335 152.747 17.7704 152.81 17.7704Z" fill="#536E96"/>
<path fill-rule="evenodd" clip-rule="evenodd" d="M6.2419 15.3702C6.01805 15.3711 5.79625 15.3275 5.58927 15.2421C5.3823 15.1567 5.19425 15.0311 5.03596 14.8726C4.87767 14.7141 4.75228 14.5258 4.667 14.3185C4.58172 14.1113 4.53824 13.8891 4.53907 13.665C4.53907 13.4755 4.60214 13.3492 4.60214 13.1597C5.62982 9.79265 7.71094 6.84554 10.5385 4.75312C13.366 2.6607 16.7902 1.53377 20.306 1.53859C21.9491 1.54353 23.5835 1.77735 25.1622 2.23333C25.5869 2.3821 25.9397 2.68598 26.1502 3.08414C26.3607 3.4823 26.4133 3.94538 26.2974 4.38071C26.1489 4.80595 25.8454 5.15933 25.4478 5.37012C25.0502 5.58091 24.5878 5.63357 24.1531 5.51755C22.9057 5.13955 21.6093 4.94801 20.306 4.94913C17.5168 4.92972 14.7969 5.81855 12.556 7.4817C10.3151 9.14486 8.67461 11.4922 7.88166 14.1702C7.76489 14.5149 7.54475 14.8151 7.25128 15.0299C6.95781 15.2447 6.60532 15.3635 6.2419 15.3702Z" fill="#536E96"/>
<path fill-rule="evenodd" clip-rule="evenodd" d="M32.099 7.15937C32.099 7.49664 31.9992 7.82634 31.8121 8.10677C31.625 8.3872 31.359 8.60577 31.0479 8.73484C30.7367 8.86391 30.3943 8.89768 30.064 8.83188C29.7337 8.76608 29.4303 8.60367 29.1921 8.36518C28.954 8.1267 28.7918 7.82284 28.7261 7.49205C28.6604 7.16126 28.6941 6.81839 28.823 6.50679C28.9519 6.19519 29.1701 5.92887 29.4502 5.74149C29.7302 5.55411 30.0594 5.4541 30.3962 5.4541C30.8453 5.46221 31.2737 5.64447 31.5913 5.96253C31.909 6.28059 32.091 6.70964 32.099 7.15937ZM11.9174 28.8226C11.9174 29.1599 11.8175 29.4896 11.6304 29.77C11.4433 30.0505 11.1773 30.269 10.8662 30.3981C10.555 30.5272 10.2127 30.5609 9.88234 30.4951C9.55203 30.4293 9.24861 30.2669 9.01047 30.0285C8.77232 29.79 8.61014 29.4861 8.54444 29.1553C8.47874 28.8245 8.51246 28.4817 8.64134 28.1701C8.77022 27.8585 8.98848 27.5921 9.26851 27.4048C9.54853 27.2174 9.87776 27.1174 10.2145 27.1174C10.4384 27.1165 10.6602 27.1601 10.8672 27.2455C11.0741 27.3309 11.2622 27.4565 11.4205 27.615C11.5788 27.7735 11.7042 27.9618 11.7895 28.1691C11.8747 28.3763 11.9182 28.5985 11.9174 28.8226Z" fill="#536E96"/>
</svg>
