<svg width="38" height="38" viewBox="0 0 38 38" fill="none" xmlns="http://www.w3.org/2000/svg">
<path d="M11.2812 30.875C13.5767 30.875 15.4375 29.0142 15.4375 26.7188C15.4375 24.4233 13.5767 22.5625 11.2812 22.5625C8.98582 22.5625 7.125 24.4233 7.125 26.7188C7.125 29.0142 8.98582 30.875 11.2812 30.875Z" stroke="#6D737A" stroke-width="1.5" stroke-linecap="round" stroke-linejoin="round"/>
<path d="M26.7188 30.875C29.0142 30.875 30.875 29.0142 30.875 26.7188C30.875 24.4233 29.0142 22.5625 26.7188 22.5625C24.4233 22.5625 22.5625 24.4233 22.5625 26.7188C22.5625 29.0142 24.4233 30.875 26.7188 30.875Z" stroke="#6D737A" stroke-width="1.5" stroke-linecap="round" stroke-linejoin="round"/>
<path d="M15.4375 26.7188H22.5625" stroke="#6D737A" stroke-width="1.5" stroke-linecap="round" stroke-linejoin="round"/>
<path d="M1.1875 17.8125H36.8125" stroke="#6D737A" stroke-width="1.5" stroke-linecap="round" stroke-linejoin="round"/>
<path d="M5.9375 17.8125L13.2555 7.3625C13.3657 7.20412 13.5129 7.075 13.6843 6.98631C13.8557 6.89761 14.0461 6.85203 14.2391 6.85349C14.432 6.85495 14.6217 6.90342 14.7918 6.9947C14.9618 7.08597 15.107 7.21731 15.2148 7.37734L18.0055 11.5781C18.1134 11.7435 18.2608 11.8794 18.4345 11.9734C18.6081 12.0675 18.8025 12.1167 19 12.1167C19.1975 12.1167 19.3919 12.0675 19.5655 11.9734C19.7392 11.8794 19.8866 11.7435 19.9945 11.5781L22.7852 7.37734C22.893 7.21731 23.0382 7.08597 23.2082 6.9947C23.3783 6.90342 23.568 6.85495 23.7609 6.85349C23.9539 6.85203 24.1443 6.89761 24.3157 6.98631C24.4871 7.075 24.6343 7.20412 24.7445 7.3625L32.0625 17.8125" stroke="#6D737A" stroke-width="1.5" stroke-linecap="round" stroke-linejoin="round"/>
</svg>
