<svg width="24" height="24" viewBox="0 0 24 24" fill="none" xmlns="http://www.w3.org/2000/svg">
<path d="M19.5 8.25H4.49997C4.08576 8.25 3.74997 8.58579 3.74997 9V19.5C3.74997 19.9142 4.08576 20.25 4.49997 20.25H19.5C19.9142 20.25 20.25 19.9142 20.25 19.5V9C20.25 8.58579 19.9142 8.25 19.5 8.25Z" stroke="#6D737A" stroke-width="1.5" stroke-linecap="round" stroke-linejoin="round"/>
<path d="M8.62497 8.25V4.875C8.62497 3.97989 8.98055 3.12145 9.61348 2.48851C10.2464 1.85558 11.1049 1.5 12 1.5C12.8951 1.5 13.7535 1.85558 14.3865 2.48851C15.0194 3.12145 15.375 3.97989 15.375 4.875V8.25" stroke="#6D737A" stroke-width="1.5" stroke-linecap="round" stroke-linejoin="round"/>
<path d="M12 15.375C12.6213 15.375 13.125 14.8713 13.125 14.25C13.125 13.6287 12.6213 13.125 12 13.125C11.3786 13.125 10.875 13.6287 10.875 14.25C10.875 14.8713 11.3786 15.375 12 15.375Z" fill="#6D737A"/>
</svg>
