<svg width="135" height="28" viewBox="0 0 135 28" fill="none" xmlns="http://www.w3.org/2000/svg">
<path d="M0.147458 27V1.224H9.21946C10.4435 1.224 11.5835 1.428 12.6395 1.836C13.7195 2.22 14.6555 2.772 15.4475 3.492C16.2395 4.212 16.8635 5.076 17.3195 6.084C17.7755 7.068 18.0035 8.16 18.0035 9.36C18.0035 10.584 17.7755 11.7 17.3195 12.708C16.8635 13.692 16.2395 14.544 15.4475 15.264C14.6555 15.984 13.7195 16.548 12.6395 16.956C11.5835 17.34 10.4435 17.532 9.21946 17.532H5.00746V27H0.147458ZM9.29146 12.924C10.5635 12.924 11.5235 12.564 12.1715 11.844C12.8195 11.124 13.1435 10.296 13.1435 9.36C13.1435 8.904 13.0595 8.46 12.8915 8.028C12.7475 7.596 12.5075 7.224 12.1715 6.912C11.8595 6.576 11.4635 6.312 10.9835 6.12C10.5035 5.928 9.93946 5.832 9.29146 5.832H5.00746V12.924H9.29146ZM20.9481 9.36H25.3761V11.808H25.6641C25.8801 11.376 26.1681 10.98 26.5281 10.62C26.8881 10.26 27.2841 9.948 27.7161 9.684C28.1721 9.42 28.6521 9.216 29.1561 9.072C29.6841 8.928 30.2001 8.856 30.7041 8.856C31.3281 8.856 31.8561 8.916 32.2881 9.036C32.7441 9.156 33.1281 9.312 33.4401 9.504L32.1801 13.788C31.8921 13.644 31.5681 13.536 31.2081 13.464C30.8721 13.368 30.4521 13.32 29.9481 13.32C29.3001 13.32 28.7121 13.452 28.1841 13.716C27.6561 13.956 27.2001 14.304 26.8161 14.76C26.4561 15.216 26.1681 15.756 25.9521 16.38C25.7601 16.98 25.6641 17.64 25.6641 18.36V27H20.9481V9.36ZM45.8492 25.128H45.5612C45.0092 25.8 44.3372 26.376 43.5452 26.856C42.7772 27.336 41.7812 27.576 40.5572 27.576C39.6452 27.576 38.7812 27.42 37.9652 27.108C37.1732 26.82 36.4772 26.412 35.8772 25.884C35.2772 25.356 34.8092 24.72 34.4732 23.976C34.1372 23.232 33.9692 22.416 33.9692 21.528C33.9692 20.616 34.1492 19.8 34.5092 19.08C34.8692 18.336 35.3732 17.7 36.0212 17.172C36.6692 16.644 37.4252 16.248 38.2892 15.984C39.1772 15.696 40.1372 15.552 41.1692 15.552C42.3212 15.552 43.2692 15.648 44.0132 15.84C44.7572 16.008 45.3692 16.188 45.8492 16.38V15.84C45.8492 14.904 45.4772 14.136 44.7332 13.536C43.9892 12.912 43.0652 12.6 41.9612 12.6C40.3292 12.6 38.9492 13.284 37.8212 14.652L34.4012 12.312C36.2732 9.96 38.8292 8.784 42.0692 8.784C44.8052 8.784 46.8932 9.432 48.3332 10.728C49.7732 12 50.4932 13.896 50.4932 16.416V27H45.8492V25.128ZM45.8492 19.836C45.2972 19.572 44.7212 19.368 44.1212 19.224C43.5452 19.056 42.9092 18.972 42.2132 18.972C41.0852 18.972 40.2092 19.224 39.5852 19.728C38.9852 20.208 38.6852 20.808 38.6852 21.528C38.6852 22.248 38.9732 22.824 39.5492 23.256C40.1492 23.688 40.8332 23.904 41.6012 23.904C42.2252 23.904 42.8012 23.796 43.3292 23.58C43.8572 23.34 44.3012 23.04 44.6612 22.68C45.0452 22.296 45.3332 21.864 45.5252 21.384C45.7412 20.88 45.8492 20.364 45.8492 19.836ZM70.879 22.5C70.111 23.988 69.031 25.212 67.639 26.172C66.271 27.108 64.555 27.576 62.491 27.576C61.123 27.576 59.863 27.348 58.711 26.892C57.583 26.412 56.599 25.752 55.759 24.912C54.943 24.072 54.295 23.088 53.815 21.96C53.359 20.808 53.131 19.548 53.131 18.18C53.131 16.812 53.359 15.552 53.815 14.4C54.295 13.248 54.943 12.264 55.759 11.448C56.599 10.608 57.583 9.96 58.711 9.504C59.863 9.024 61.123 8.784 62.491 8.784C64.531 8.784 66.247 9.252 67.639 10.188C69.031 11.124 70.051 12.336 70.699 13.824L66.379 15.624C65.971 14.808 65.443 14.196 64.795 13.788C64.171 13.356 63.379 13.14 62.419 13.14C61.795 13.14 61.207 13.26 60.655 13.5C60.103 13.74 59.611 14.076 59.179 14.508C58.771 14.94 58.447 15.468 58.207 16.092C57.967 16.716 57.847 17.412 57.847 18.18C57.847 18.948 57.967 19.644 58.207 20.268C58.447 20.892 58.771 21.42 59.179 21.852C59.611 22.284 60.103 22.62 60.655 22.86C61.207 23.1 61.795 23.22 62.419 23.22C63.403 23.22 64.231 23.004 64.903 22.572C65.599 22.116 66.151 21.468 66.559 20.628L70.879 22.5ZM75.5964 13.392H72.5004V9.36H75.5964V3.96H80.3124V9.36H84.6324V13.392H80.3124V20.232C80.3124 20.64 80.3484 21.024 80.4204 21.384C80.5164 21.72 80.6844 22.008 80.9244 22.248C81.2604 22.632 81.7404 22.824 82.3644 22.824C82.7724 22.824 83.0964 22.788 83.3364 22.716C83.5764 22.62 83.8044 22.5 84.0204 22.356L85.3524 26.496C84.8004 26.76 84.2004 26.952 83.5524 27.072C82.9284 27.216 82.2324 27.288 81.4644 27.288C80.5764 27.288 79.7724 27.156 79.0524 26.892C78.3564 26.604 77.7684 26.22 77.2884 25.74C76.1604 24.66 75.5964 23.124 75.5964 21.132V13.392ZM90.9774 6.804C90.5694 6.804 90.1734 6.732 89.7894 6.588C89.4294 6.42 89.1054 6.204 88.8174 5.94C88.5534 5.652 88.3374 5.328 88.1694 4.968C88.0254 4.608 87.9534 4.212 87.9534 3.78C87.9534 3.348 88.0254 2.952 88.1694 2.592C88.3374 2.232 88.5534 1.92 88.8174 1.656C89.1054 1.368 89.4294 1.152 89.7894 1.008C90.1734 0.839998 90.5694 0.755999 90.9774 0.755999C91.8174 0.755999 92.5374 1.056 93.1374 1.656C93.7374 2.232 94.0374 2.94 94.0374 3.78C94.0374 4.62 93.7374 5.34 93.1374 5.94C92.5374 6.516 91.8174 6.804 90.9774 6.804ZM88.6374 27V9.36H93.3534V27H88.6374ZM114.302 22.5C113.534 23.988 112.454 25.212 111.062 26.172C109.694 27.108 107.978 27.576 105.914 27.576C104.546 27.576 103.286 27.348 102.134 26.892C101.006 26.412 100.022 25.752 99.1821 24.912C98.3661 24.072 97.7181 23.088 97.2381 21.96C96.7821 20.808 96.5541 19.548 96.5541 18.18C96.5541 16.812 96.7821 15.552 97.2381 14.4C97.7181 13.248 98.3661 12.264 99.1821 11.448C100.022 10.608 101.006 9.96 102.134 9.504C103.286 9.024 104.546 8.784 105.914 8.784C107.954 8.784 109.67 9.252 111.062 10.188C112.454 11.124 113.474 12.336 114.122 13.824L109.802 15.624C109.394 14.808 108.866 14.196 108.218 13.788C107.594 13.356 106.802 13.14 105.842 13.14C105.218 13.14 104.63 13.26 104.078 13.5C103.526 13.74 103.034 14.076 102.602 14.508C102.194 14.94 101.87 15.468 101.63 16.092C101.39 16.716 101.27 17.412 101.27 18.18C101.27 18.948 101.39 19.644 101.63 20.268C101.87 20.892 102.194 21.42 102.602 21.852C103.034 22.284 103.526 22.62 104.078 22.86C104.63 23.1 105.218 23.22 105.842 23.22C106.826 23.22 107.654 23.004 108.326 22.572C109.022 22.116 109.574 21.468 109.982 20.628L114.302 22.5ZM133.779 22.752C132.963 24.192 131.859 25.356 130.467 26.244C129.099 27.132 127.419 27.576 125.427 27.576C124.083 27.576 122.835 27.348 121.683 26.892C120.555 26.412 119.571 25.752 118.731 24.912C117.891 24.072 117.231 23.088 116.751 21.96C116.295 20.808 116.067 19.548 116.067 18.18C116.067 16.908 116.295 15.708 116.751 14.58C117.207 13.428 117.843 12.432 118.659 11.592C119.475 10.728 120.435 10.044 121.539 9.54C122.667 9.036 123.903 8.784 125.247 8.784C126.663 8.784 127.923 9.024 129.027 9.504C130.131 9.96 131.055 10.608 131.799 11.448C132.543 12.264 133.107 13.236 133.491 14.364C133.875 15.492 134.067 16.716 134.067 18.036C134.067 18.204 134.067 18.348 134.067 18.468C134.043 18.612 134.031 18.744 134.031 18.864C134.007 18.984 133.995 19.116 133.995 19.26H120.711C120.807 19.98 120.999 20.604 121.287 21.132C121.599 21.636 121.971 22.068 122.403 22.428C122.859 22.764 123.351 23.016 123.879 23.184C124.407 23.328 124.947 23.4 125.499 23.4C126.579 23.4 127.467 23.16 128.163 22.68C128.883 22.176 129.447 21.552 129.855 20.808L133.779 22.752ZM129.495 15.912C129.471 15.6 129.363 15.252 129.171 14.868C129.003 14.484 128.739 14.124 128.379 13.788C128.043 13.452 127.611 13.176 127.083 12.96C126.579 12.744 125.967 12.636 125.247 12.636C124.239 12.636 123.351 12.924 122.583 13.5C121.815 14.076 121.275 14.88 120.963 15.912H129.495Z" fill="#20B486"/>
</svg>
