<svg width="45" height="34" viewBox="0 0 45 34" fill="none" xmlns="http://www.w3.org/2000/svg">
<path d="M12.7224 0.192139H7.83352C3.78975 0.192139 0.500183 3.43147 0.500183 7.41347V12.2277C0.500183 16.2097 3.78975 19.449 7.83352 19.449H12.7224C13.5072 19.449 14.2494 19.2951 14.9589 19.069C13.9733 24.7384 8.98094 29.0774 2.94463 29.0774C1.5935 29.0774 0.500183 30.1541 0.500183 31.4846C0.500183 32.815 1.5935 33.8917 2.94463 33.8917C12.3787 33.8917 20.0557 26.3319 20.0557 17.0419V7.41347C20.0557 3.43147 16.7662 0.192139 12.7224 0.192139ZM37.1668 0.192139H32.278C28.2342 0.192139 24.9446 3.43147 24.9446 7.41347V12.2277C24.9446 16.2097 28.2342 19.449 32.278 19.449H37.1668C37.9517 19.449 38.6938 19.2951 39.4034 19.069C38.4178 24.7384 33.4254 29.0774 27.3891 29.0774C26.0379 29.0774 24.9446 30.1541 24.9446 31.4846C24.9446 32.815 26.0379 33.8917 27.3891 33.8917C36.8232 33.8917 44.5002 26.3319 44.5002 17.0419V7.41347C44.5002 3.43147 41.2106 0.192139 37.1668 0.192139Z" fill="#20B486"/>
<path d="M15.4515 19.1546L15.5928 18.3422L14.8071 18.5926C14.1307 18.8082 13.4413 18.949 12.7224 18.949H7.83352C4.05861 18.949 1.00018 15.9263 1.00018 12.2277V7.41347C1.00018 3.71484 4.05861 0.692139 7.83352 0.692139H12.7224C16.4973 0.692139 19.5557 3.71484 19.5557 7.41347V17.0419C19.5557 26.0485 12.1099 33.3917 2.94463 33.3917C1.86236 33.3917 1.00018 32.5317 1.00018 31.4846C1.00018 30.4374 1.86236 29.5774 2.94463 29.5774C9.22531 29.5774 14.4245 25.0623 15.4515 19.1546ZM39.896 19.1546L40.0372 18.3422L39.2515 18.5926C38.5751 18.8082 37.8857 18.949 37.1668 18.949H32.278C28.5031 18.949 25.4446 15.9263 25.4446 12.2277V7.41347C25.4446 3.71484 28.5031 0.692139 32.278 0.692139H37.1668C40.9417 0.692139 44.0002 3.71484 44.0002 7.41347V17.0419C44.0002 26.0485 36.5543 33.3917 27.3891 33.3917C26.3068 33.3917 25.4446 32.5317 25.4446 31.4846C25.4446 30.4374 26.3068 29.5774 27.3891 29.5774C33.6698 29.5774 38.8689 25.0623 39.896 19.1546Z" stroke="black" stroke-opacity="0.1"/>
</svg>
