<svg width="45" height="44" viewBox="0 0 45 44" fill="none" xmlns="http://www.w3.org/2000/svg">
<path d="M22.5 30.9375C26.297 30.9375 29.375 27.8595 29.375 24.0625C29.375 20.2655 26.297 17.1875 22.5 17.1875C18.703 17.1875 15.625 20.2655 15.625 24.0625C15.625 27.8595 18.703 30.9375 22.5 30.9375Z" stroke="#0075FD" stroke-width="1.5" stroke-linecap="round" stroke-linejoin="round"/>
<path d="M34.1875 19.9375C35.7889 19.9348 37.3688 20.3064 38.8012 21.0226C40.2336 21.7388 41.4788 22.7798 42.4375 24.0625" stroke="#0075FD" stroke-width="1.5" stroke-linecap="round" stroke-linejoin="round"/>
<path d="M2.5625 24.0625C3.52122 22.7798 4.76642 21.7388 6.19879 21.0226C7.63116 20.3064 9.21106 19.9348 10.8125 19.9375" stroke="#0075FD" stroke-width="1.5" stroke-linecap="round" stroke-linejoin="round"/>
<path d="M12.6 37.125C13.5055 35.2706 14.9136 33.7078 16.6639 32.6147C18.4142 31.5215 20.4364 30.9419 22.5 30.9419C24.5636 30.9419 26.5858 31.5215 28.3361 32.6147C30.0864 33.7078 31.4945 35.2706 32.4 37.125" stroke="#0075FD" stroke-width="1.5" stroke-linecap="round" stroke-linejoin="round"/>
<path d="M10.8125 19.9375C9.7686 19.9386 8.74596 19.6425 7.86406 19.084C6.98217 18.5254 6.27744 17.7274 5.83222 16.7832C5.38701 15.839 5.21969 14.7876 5.34982 13.7519C5.47995 12.7161 5.90216 11.7388 6.5671 10.9341C7.23205 10.1294 8.11228 9.5305 9.10494 9.20747C10.0976 8.88443 11.1617 8.85056 12.1729 9.10982C13.1841 9.36908 14.1006 9.91076 14.8154 10.6716C15.5301 11.4324 16.0136 12.3809 16.2094 13.4062" stroke="#0075FD" stroke-width="1.5" stroke-linecap="round" stroke-linejoin="round"/>
<path d="M28.7906 13.4062C28.9864 12.3809 29.4698 11.4324 30.1846 10.6716C30.8994 9.91076 31.8159 9.36908 32.8271 9.10982C33.8383 8.85056 34.9024 8.88443 35.8951 9.20747C36.8877 9.5305 37.7679 10.1294 38.4329 10.9341C39.0978 11.7388 39.52 12.7161 39.6502 13.7519C39.7803 14.7876 39.613 15.839 39.1678 16.7832C38.7226 17.7274 38.0178 18.5254 37.1359 19.084C36.254 19.6425 35.2314 19.9386 34.1875 19.9375" stroke="#0075FD" stroke-width="1.5" stroke-linecap="round" stroke-linejoin="round"/>
</svg>
