<svg width="45" height="44" viewBox="0 0 45 44" fill="none" xmlns="http://www.w3.org/2000/svg">
<path d="M4.625 10.3125H26.625C28.0837 10.3125 29.4826 10.892 30.5141 11.9234C31.5455 12.9549 32.125 14.3538 32.125 15.8125V32.3125C32.125 32.6772 31.9801 33.0269 31.7223 33.2848C31.4644 33.5426 31.1147 33.6875 30.75 33.6875H8.75C7.29131 33.6875 5.89236 33.108 4.86091 32.0766C3.82946 31.0451 3.25 29.6462 3.25 28.1875V11.6875C3.25 11.3228 3.39487 10.9731 3.65273 10.7152C3.91059 10.4574 4.26033 10.3125 4.625 10.3125V10.3125Z" stroke="#FFC27A" stroke-width="1.5" stroke-linecap="round" stroke-linejoin="round"/>
<path d="M32.125 19.25L41.75 13.75V30.25L32.125 24.75" stroke="#FFC27A" stroke-width="1.5" stroke-linecap="round" stroke-linejoin="round"/>
</svg>
